<?xml version="1.0" standalone="no"?><!DOCTYPE svg PUBLIC "-//W3C//DTD SVG 1.1//EN" "http://www.w3.org/Graphics/SVG/1.1/DTD/svg11.dtd"><svg t="1515527715602" class="icon" style="" viewBox="0 0 1024 1024" version="1.1" xmlns="http://www.w3.org/2000/svg" p-id="1949" id="mx_n_1515527715603" xmlns:xlink="http://www.w3.org/1999/xlink" width="320" height="320"><defs><style type="text/css"></style></defs><path d="M969.312 524.608c0 248.256-201.248 449.504-449.504 449.504S70.304 772.864 70.304 524.608c0-248.256 201.248-449.504 449.504-449.504s449.504 201.248 449.504 449.504z" fill="#66CCFF" p-id="1950" data-spm-anchor-id="a313x.7781069.0.i13" class=""></path><path d="M838.4 460c30.912 8.608-0.192 34.016-0.192 34.016l-104.704 75.488-326.016-166.688s220.192 146.496 287.392 191.904l-227.008 148.384c-35.904 20.384-45.312 4.096-45.312 4.096l-15.808-32.384-160.096-384.704c-6.016-13.312 10.912-28.608 28.992-26.112l562.688 156z m-232 225.088l86.784-56 0.288 108.288-87.104-52.288z" fill="#FFFFFF" p-id="1951"></path></svg>