<?xml version="1.0" standalone="no"?><!DOCTYPE svg PUBLIC "-//W3C//DTD SVG 1.1//EN" "http://www.w3.org/Graphics/SVG/1.1/DTD/svg11.dtd"><svg t="1515529331239" class="icon" style="" viewBox="0 0 1024 1024" version="1.1" xmlns="http://www.w3.org/2000/svg" p-id="1512" xmlns:xlink="http://www.w3.org/1999/xlink" width="128" height="128"><defs><style type="text/css"></style></defs><path d="M376.917333 828.928A383.146667 383.146667 0 0 0 512 853.333333a384 384 0 0 0 384-384 384 384 0 0 0-384-384 384 384 0 0 0-384 384c0 84.352 27.221333 164.48 76.8 230.4l8.533333 11.434667V896c0 14.293333-3.072 12.544 9.258667 5.290667l135.253333-79.530667 19.072 7.168z m-132.693333 109.141333C203.605333 961.962667 170.666667 943.488 170.666667 896v-170.624A424.789333 424.789333 0 0 1 85.333333 469.333333C85.333333 233.685333 276.309333 42.666667 512 42.666667c235.648 0 426.666667 190.976 426.666667 426.666666 0 235.648-190.976 426.666667-426.666667 426.666667a425.813333 425.813333 0 0 1-150.101333-27.136l-117.674667 69.205333z" fill="#2c2c2c" p-id="1513"></path><path d="M469.333333 341.333333c0-23.552 18.944-42.666667 42.666667-42.666666 23.552 0 42.666667 18.944 42.666667 42.666666v128c0 23.552-18.944 42.666667-42.666667 42.666667-23.552 0-42.666667-18.944-42.666667-42.666667V341.333333z m0 256c0-23.552 18.944-42.666667 42.666667-42.666666 23.552 0 42.666667 18.944 42.666667 42.666666 0 23.552-18.944 42.666667-42.666667 42.666667-23.552 0-42.666667-18.944-42.666667-42.666667z" fill="#2c2c2c" p-id="1514"></path></svg>